<svg xmlns="http://www.w3.org/2000/svg" aria-hidden="true" style="position:absolute;width:0;height:0;overflow:hidden">
    <defs>
        <symbol id="icon-wifi" viewBox="0 0 32 32">
            <path
                d="M3.341 13.163 0 9.854a22.695 22.695 0 0 1 15.967-6.521A22.691 22.691 0 0 1 32 9.92l-3.333 3.302a18.15 18.15 0 0 0-12.693-5.144c-4.914 0-9.368 1.94-12.633 5.085zm12.646 3.858c2.439 0 4.651.956 6.28 2.509l3.333-3.302a13.616 13.616 0 0 0-9.62-3.952 13.618 13.618 0 0 0-9.58 3.912l3.341 3.309a9.076 9.076 0 0 1 6.246-2.476zm.099 6.002c-1.573 0-2.849 1.263-2.849 2.822s1.275 2.822 2.849 2.822c1.573 0 2.849-1.264 2.849-2.822s-1.275-2.822-2.849-2.822z" />
        </symbol>
        <symbol id="icon-arrow" viewBox="0 0 32 32">
            <path stroke-linecap="round" stroke-linejoin="round" stroke-width="2.667"
                d="M29.833 9.083 16 22.916 2.167 9.083" />
        </symbol>
        <symbol id="icon-city" viewBox="0 0 32 32">
            <path stroke-linecap="round" stroke-linejoin="round" stroke-width="2.667"
                d="M2.5 29.5h27M5.5 29.5v-21l12-6v27M26.5 29.5v-15l-9-6M11.5 11.5v.015M11.5 16v.015M11.5 20.5v.015M11.5 25v.015" />
        </symbol>
        <symbol id="icon-fan" viewBox="0 0 32 32">
            <path
                d="M13.853 31.333c-1.303 0-2.294-.39-2.971-1.169S9.866 28.496 9.866 27.5c0-.665.147-1.31.441-1.936s.748-1.144 1.361-1.552c.562-.358 1.016-.818 1.361-1.38s.581-1.163.709-1.802l-.46-.23a2.42 2.42 0 0 1-.422-.268l-3.527 1.265c-.435.153-.856.281-1.265.383s-.83.153-1.265.153c-1.61 0-3.035-.703-4.274-2.108S.666 16.562.666 13.853c0-1.303.39-2.294 1.169-2.971S3.49 9.866 4.461 9.866c.665 0 1.316.147 1.955.441s1.163.748 1.572 1.361c.358.562.818 1.016 1.38 1.361s1.163.581 1.802.709l.23-.46a2.42 2.42 0 0 1 .268-.422l-1.265-3.527c-.153-.435-.281-.856-.383-1.265s-.153-.818-.153-1.227c0-1.635.703-3.073 2.108-4.313S15.438.665 18.147.665c1.303 0 2.294.39 2.971 1.169s1.016 1.655 1.016 2.626c0 .665-.147 1.316-.441 1.955s-.747 1.163-1.361 1.572c-.562.358-1.016.818-1.361 1.38s-.581 1.163-.709 1.802l.46.23c.153.077.294.166.422.268l3.527-1.303c.435-.153.85-.275 1.246-.364s.811-.134 1.246-.134c2.07 0 3.616.856 4.638 2.568s1.533 3.616 1.533 5.712c0 1.303-.409 2.294-1.227 2.971s-1.725 1.016-2.722 1.016c-.639 0-1.259-.147-1.859-.441s-1.105-.747-1.514-1.361c-.358-.562-.818-1.016-1.38-1.361s-1.163-.581-1.802-.709l-.23.46a2.42 2.42 0 0 1-.268.422l1.265 3.527c.153.409.281.799.383 1.169s.153.76.153 1.169c.025 1.661-.665 3.13-2.07 4.408s-3.475 1.917-6.21 1.917zM16 18.3c.639 0 1.182-.224 1.629-.671s.671-.99.671-1.629-.224-1.182-.671-1.629-.99-.671-1.629-.671-1.182.224-1.629.671-.671.99-.671 1.629.224 1.182.671 1.629.99.671 1.629.671zm-1.763-7.36c.153-.051.313-.096.479-.134s.326-.07.479-.096c.205-1.073.594-2.07 1.169-2.99s1.335-1.687 2.281-2.3c.128-.102.23-.23.307-.383s.115-.345.115-.575c0-.205-.077-.377-.23-.518s-.383-.211-.69-.211c-.971 0-2.07.211-3.297.632s-1.865 1.246-1.917 2.473c0 .23.032.447.096.652s.121.396.172.575l1.035 2.875zM6.8 19.067c.358 0 .78-.09 1.265-.268l2.875-1.035c-.051-.153-.096-.313-.134-.479s-.07-.326-.096-.479c-1.073-.205-2.07-.594-2.99-1.169s-1.687-1.335-2.3-2.281c-.102-.128-.236-.23-.402-.307s-.351-.115-.556-.115c-.23 0-.409.077-.537.23s-.192.383-.192.69c0 1.38.262 2.594.786 3.642s1.284 1.572 2.281 1.572zm7.053 9.2c1.201 0 2.383-.243 3.546-.728s1.719-1.329 1.668-2.53c0-.205-.032-.396-.096-.575s-.121-.345-.172-.498l-1.035-2.875c-.153.051-.313.096-.479.134s-.326.07-.479.096c-.205 1.073-.594 2.07-1.169 2.99s-1.335 1.687-2.281 2.3c-.128.102-.236.236-.326.402s-.121.339-.096.517c.025.205.102.383.23.537s.358.23.69.23zm13.532-9.2c.23 0 .435-.064.613-.192s.268-.37.268-.728c0-.971-.205-2.076-.613-3.316s-1.24-1.872-2.492-1.898c-.23 0-.447.025-.652.077s-.396.102-.575.153l-2.875 1.073c.051.153.096.313.134.479s.07.326.096.479c1.073.205 2.07.594 2.99 1.169s1.687 1.335 2.3 2.281c.077.128.192.23.345.307s.307.115.46.115z" />
        </symbol>
        <symbol id="icon-flame" viewBox="0 0 32 32">
            <path
                d="m11.131 11.03-.003.002-.003.003.006-.005zm13.722-.257a1.733 1.733 0 0 0-.317-.241 1.368 1.368 0 0 0-1.088-.135 1.387 1.387 0 0 0-.842.701 7.974 7.974 0 0 1-1.927 2.45 12.022 12.022 0 0 0-5.882-12.533 1.375 1.375 0 0 0-1.84.456 1.38 1.38 0 0 0-.215.655 9.68 9.68 0 0 1-3.406 6.813l-.318.258a11.748 11.748 0 0 0-2.74 2.567 12.383 12.383 0 0 0 .397 15.875 12.383 12.383 0 0 0 4.642 3.299 1.382 1.382 0 0 0 1.289-.132 1.386 1.386 0 0 0 .61-1.144 1.434 1.434 0 0 0-.069-.431 9.634 9.634 0 0 1-.262-3.558 12.413 12.413 0 0 0 5.945 5.537c.311.139.662.158.986.053a12.41 12.41 0 0 0 8.232-8.84 12.4 12.4 0 0 0-3.195-11.649zM19.47 28.461a9.586 9.586 0 0 1-4.93-6.069c-.107-.438-.19-.882-.248-1.329a1.38 1.38 0 0 0-2.561-.499 12.35 12.35 0 0 0-1.662 6.504A9.627 9.627 0 0 1 6.717 16.83a9.64 9.64 0 0 1 1.731-3.367 9.044 9.044 0 0 1 2.153-2.01.956.956 0 0 0 .102-.075s.409-.338.423-.346a12.362 12.362 0 0 0 3.996-6.386 9.284 9.284 0 0 1 1.911 11.149 1.382 1.382 0 0 0 .163 1.522 1.377 1.377 0 0 0 1.468.433 10.825 10.825 0 0 0 5.324-3.705 9.657 9.657 0 0 1 1.217 8.298 9.645 9.645 0 0 1-5.738 6.117z" />
        </symbol>
        <symbol id="icon-goodness" viewBox="0 0 32 32">
            <path stroke-width=".667"
                d="M29.099 4.379a2.414 2.414 0 0 0-1.761-.689c-1.306.034-2.368 1.14-2.368 2.467v6.155a2.435 2.435 0 0 0-2.53.573l-6.066 6.066c-.136.136-.261.28-.374.431a4.11 4.11 0 0 0-.374-.431L9.56 12.885a2.435 2.435 0 0 0-2.53-.573V6.12c0-.661-.261-1.28-.735-1.742s-1.099-.706-1.761-.689c-1.306.034-2.368 1.14-2.368 2.467v9.09c0 .829.235 1.638.678 2.338l4.468 7.054c.41.648.627 1.395.627 2.162v2.222a.81.81 0 0 0 .811.811h14.5a.81.81 0 0 0 .811-.811V26.8c0-.767.217-1.514.627-2.162l4.468-7.054c.444-.7.678-1.509.678-2.338V6.119c0-.661-.261-1.28-.735-1.742zM8.682 23.772l-4.468-7.054a2.746 2.746 0 0 1-.427-1.471v-9.09c0-.456.354-.836.789-.847a.809.809 0 0 1 .833.811v8.511c0 .023.002.045.003.067.023.591.259 1.175.709 1.626l2.957 2.957a.81.81 0 1 0 1.146-1.146l-2.957-2.957a.811.811 0 0 1 1.146-1.146l6.066 6.066c.458.458.71 1.069.71 1.721v6.394H9.56v-1.411a5.65 5.65 0 0 0-.879-3.029zm19.53-8.525c0 .522-.148 1.03-.427 1.471l-4.468 7.054a5.65 5.65 0 0 0-.879 3.029v1.411h-5.629v-6.394c0-.652.252-1.263.71-1.721l6.066-6.066a.811.811 0 0 1 1.146 0 .815.815 0 0 1 0 1.146l-2.956 2.958a.811.811 0 0 0 1.146 1.146l2.956-2.958a2.413 2.413 0 0 0 .711-1.667l.001-.025V6.157c0-.456.354-.836.789-.847.22-.006.43.076.588.23s.245.36.245.581v9.127z" />
            <path stroke-width=".667"
                d="M10.352 9.312c.035.038.154.155 2.425 2.37 1.184 1.155 2.526 2.463 2.634 2.572a.811.811 0 0 0 1.175-.006c.116-.119 1.356-1.326 2.451-2.392 1.917-1.866 2.526-2.46 2.602-2.543a.666.666 0 0 0 .049-.059c2.62-3.326.234-7.06-3.148-7.076-.918.014-1.788.329-2.553.919-1.97-1.491-4.137-1.007-5.419.179-1.73 1.581-1.816 4.22-.24 6.01l.024.027zm1.316-4.847c.825-.763 2.305-1.146 3.758.286a.81.81 0 0 0 1.152-.014c.9-.93 2.455-1.414 3.744-.277.842.743 1.373 2.173.111 3.767-.204.204-1.487 1.454-2.527 2.466-.918.893-1.524 1.484-1.911 1.862-.552-.54-4.03-3.929-4.447-4.34-.825-.998-1.136-2.588.121-3.751z" />
        </symbol>
        <symbol id="icon-location" viewBox="0 0 32 32">
            <path stroke-linecap="round" stroke-linejoin="round" stroke-width="3.2"
                d="M20 13.601a4 4 0 1 0-8-.002 4 4 0 0 0 8 .002z" />
            <path stroke-linecap="round" stroke-linejoin="round" stroke-width="3.2"
                d="M15.999 30.4C14.081 30.4 4 22.237 4 13.701 4 7.018 9.371 1.6 15.999 1.6S28 7.019 28 13.701C28 22.237 17.917 30.4 15.999 30.4z" />
        </symbol>
        <symbol id="icon-mail" viewBox="0 0 32 32">
            <path
                d="M22.802 28.583H9.198c-4.965 0-7.822-2.857-7.822-7.822v-9.523c0-4.965 2.857-7.822 7.822-7.822h13.604c4.965 0 7.822 2.857 7.822 7.822v9.523c0 4.965-2.857 7.822-7.822 7.822zM9.198 5.457c-3.891 0-5.782 1.891-5.782 5.782v9.523c0 3.891 1.891 5.782 5.782 5.782h13.604c3.891 0 5.782-1.891 5.782-5.782v-9.523c0-3.891-1.891-5.782-5.782-5.782H9.198z" />
            <path
                d="M16 17.183c-1.143 0-2.299-.354-3.183-1.075l-4.258-3.401a1.017 1.017 0 0 1 1.265-1.591l4.258 3.401c1.034.83 2.789.83 3.823 0l4.258-3.401a1.003 1.003 0 0 1 1.428.163 1.003 1.003 0 0 1-.163 1.428l-4.258 3.401c-.871.721-2.027 1.075-3.17 1.075z" />
        </symbol>
        <symbol id="icon-network" viewBox="0 0 32 32">
            <path stroke-linecap="round" stroke-linejoin="round" stroke-width="2.667"
                d="M16 29.5c7.456 0 13.5-6.044 13.5-13.5S23.456 2.5 16 2.5 2.5 8.544 2.5 16 8.544 29.5 16 29.5zM3.4 11.5h25.2M3.4 20.5h25.2" />
            <path stroke-linecap="round" stroke-linejoin="round" stroke-width="2.667"
                d="M15.25 2.5a25.5 25.5 0 0 0 0 27M16.75 2.5a25.5 25.5 0 0 1 0 27" />
        </symbol>
        <symbol id="icon-people" viewBox="0 0 32 32">
            <path
                d="M16 6.472a2.725 2.725 0 0 0-2.722 2.722A2.725 2.725 0 0 0 16 11.916a2.725 2.725 0 0 0 2.722-2.722A2.725 2.725 0 0 0 16 6.472zm-3.85-1.127a5.445 5.445 0 1 1 7.701 7.7 5.445 5.445 0 0 1-7.701-7.7zm-5.678 6.572a1.363 1.363 0 0 0-.962 2.323 1.363 1.363 0 0 0 1.924 0 1.363 1.363 0 0 0 0-1.924 1.363 1.363 0 0 0-.962-.399zM3.585 10.39a4.082 4.082 0 1 1 5.774 5.772 4.082 4.082 0 0 1-5.774-5.772zm21.943 1.527a1.363 1.363 0 0 0-.962 2.323 1.363 1.363 0 0 0 1.924 0 1.363 1.363 0 0 0 0-1.924 1.363 1.363 0 0 0-.962-.399zM22.64 10.39a4.082 4.082 0 1 1 5.774 5.772 4.082 4.082 0 0 1-5.774-5.772zM16 18.721a5.447 5.447 0 0 1 4.984 3.251l.328 3.555H10.686l.328-3.555a5.45 5.45 0 0 1 4.985-3.251zm8.167 6.807v-1.361c0-.747-.1-1.473-.29-2.164a2.724 2.724 0 0 1 3.868.586 2.72 2.72 0 0 1 .504 1.578v1.361h-4.083zm-1.457-6.02a8.17 8.17 0 0 0-13.42 0 5.44 5.44 0 0 0-7.253 1.501 5.445 5.445 0 0 0-1.009 3.157v2.722a1.36 1.36 0 0 0 1.361 1.361h27.222a1.36 1.36 0 0 0 1.361-1.361v-2.722a5.447 5.447 0 0 0-3.661-5.144 5.44 5.44 0 0 0-4.601.486zM8.123 22.003a8.194 8.194 0 0 0-.29 2.164v1.361H3.75v-1.361a2.72 2.72 0 0 1 4.372-2.164z" />
        </symbol>
        <symbol id="icon-phone" viewBox="0 0 32 32">
            <path stroke-width=".667"
                d="M26.365 30.069c1.012-.408 1.879-1.039 2.668-1.911a6.535 6.535 0 0 0 1.122-1.683c.3-.642.458-1.33.458-2.021 0-.514-.103-1.022-.317-1.562l-.003-.007a3.2 3.2 0 0 0-1.184-1.411l-4.425-3.146a6.445 6.445 0 0 0-1.181-.661l-.002-.001c-1.02-.423-2.062-.343-2.892.164-.421.22-.845.548-1.271.974l-.001.001-.742.732c-.277-.164-.699-.458-1.301-.965l-.002-.002c-.601-.497-1.246-1.101-2.03-1.872a50.208 50.208 0 0 1-1.864-2.036c-.513-.602-.811-1.026-.979-1.298l.738-.771c.398-.399.725-.807.944-1.2a3.157 3.157 0 0 0 .471-1.633c0-.439-.105-.882-.292-1.314a5.514 5.514 0 0 0-.677-1.2l-.001-.001-3.089-4.354a3.378 3.378 0 0 0-1.414-1.193 3.94 3.94 0 0 0-1.647-.365c-1.351 0-2.604.548-3.684 1.613a7.45 7.45 0 0 0-1.866 2.705v.001a8.382 8.382 0 0 0-.57 3.068c0 1.558.358 3.202 1.066 4.889v.001c.665 1.573 1.598 3.195 2.756 4.811l.002.003a40.114 40.114 0 0 0 3.859 4.517l.003.003a42.026 42.026 0 0 0 4.529 3.857l.003.002c1.59 1.145 3.225 2.092 4.851 2.783h.001c1.672.707 3.303 1.08 4.863 1.08a8.2 8.2 0 0 0 3.099-.598zm0 0h-.001l-.125-.309m.126.309-.125-.309m0 0c.96-.387 1.787-.987 2.547-1.827L18.534 29.28c1.64.693 3.227 1.053 4.733 1.053 1.053 0 2.053-.2 2.973-.573zm-3.627-9.96-.127.308a3.49 3.49 0 0 1 .669.378l4.43 3.149c.104.071.163.13.198.173a.515.515 0 0 1 .062.095c.085.194.115.359.115.524 0 .294-.068.592-.207.882l-.001.003a3.978 3.978 0 0 1-.69 1.036l-.003.004c-.515.578-1.074.974-1.705 1.233l-.001.001c-1.645.686-3.679.489-5.914-.465l-.002-.001c-1.439-.602-2.897-1.441-4.319-2.482a37.198 37.198 0 0 1-4.214-3.593 36.612 36.612 0 0 1-3.579-4.2c-1.054-1.449-1.88-2.894-2.469-4.281-.572-1.353-.854-2.655-.854-3.843 0-.748.127-1.438.389-2.088l.001-.003c.247-.63.644-1.216 1.224-1.758l.006-.005c.609-.596 1.209-.865 1.833-.865.173 0 .353.041.529.117a.89.89 0 0 1 .359.303v.001L11.439 8.8c.177.24.308.457.388.64.058.14.08.252.08.296a.53.53 0 0 1-.097.279l-.003.006a3.563 3.563 0 0 1-.548.68l-.005.005-.998 1.038a2.045 2.045 0 0 0-.602 1.473c0 .227.034.431.117.751l.005.02.008.019.167.418.009.017c.296.55.766 1.197 1.4 1.939l.001.001a46.897 46.897 0 0 0 2.001 2.175l.004.004a41.706 41.706 0 0 0 2.191 2.029l.001.001c.717.609 1.377 1.078 1.951 1.386l.011.006.011.005.37.164.01.004c.723.267 1.662.13 2.282-.474l.001-.002 1.015-1.001c.257-.257.467-.428.687-.538l.013-.007.013-.008c.203-.125.272-.123.291-.121a.28.28 0 0 1 .081.024l.081.035.003.001.108.046.126-.309zm0 0a6.205 6.205 0 0 1-.101-.043c-.227-.1-.368-.162-.766.083m.867-.04c.227.093.467.227.733.413l-1.6-.373m.001 0c-.267.133-.507.333-.773.6l.773-.6zm3.733 8.053c-1.76.733-3.893.507-6.173-.467-1.467-.613-2.947-1.467-4.387-2.52l10.56 2.987zm0 0c.68-.28 1.28-.707 1.827-1.32l-1.827 1.32z" />
        </symbol>
        <symbol id="icon-plus" viewBox="0 0 32 32">
            <path
                d="M16 1.591c.994 0 1.801.807 1.801 1.801v25.215a1.802 1.802 0 0 1-3.602 0V3.392A1.8 1.8 0 0 1 16 1.591z" />
            <path
                d="M1.591 16c0-.995.807-1.801 1.801-1.801h25.215a1.802 1.802 0 0 1 0 3.602H3.392A1.801 1.801 0 0 1 1.591 16z" />
        </symbol>
        <symbol id="icon-social-facebook" viewBox="0 0 32 32">
            <path
                d="M20.472 6.425h2.695V1.867a37.339 37.339 0 0 0-3.927-.201c-3.899 0-6.565 2.379-6.565 6.737v3.755h-4.4v5.103h4.4v13.072h5.275V17.261h4.386l.659-5.103H17.95V8.904c0-1.505.401-2.48 2.523-2.48z" />
        </symbol>
        <symbol id="icon-social-instagram" viewBox="0 0 32 32">
            <path stroke-linecap="round" stroke-linejoin="round" stroke-width="2.56"
                d="M22.454 2.76H9.214a6.62 6.62 0 0 0-6.62 6.62v13.24a6.62 6.62 0 0 0 6.62 6.62h13.24a6.62 6.62 0 0 0 6.62-6.62V9.38a6.62 6.62 0 0 0-6.62-6.62z" />
            <path stroke-linecap="round" stroke-linejoin="round" stroke-width="2.56"
                d="M15.835 20.965a4.965 4.965 0 1 0 0-9.93 4.965 4.965 0 0 0 0 9.93zM23.282 8.553v.002" />
        </symbol>
        <symbol id="icon-social-linkedin" viewBox="0 0 32 32">
            <path stroke-linecap="round" stroke-linejoin="round" stroke-width="2.56"
                d="M25.765 2.76H5.905a3.31 3.31 0 0 0-3.31 3.31v19.86a3.31 3.31 0 0 0 3.31 3.31h19.86a3.31 3.31 0 0 0 3.31-3.31V6.07a3.31 3.31 0 0 0-3.31-3.31zM9.215 14.345v8.275M9.215 9.38v.017M15.835 22.62v-8.275" />
            <path stroke-linecap="round" stroke-linejoin="round" stroke-width="2.56"
                d="M22.454 22.62v-4.965a3.314 3.314 0 0 0-3.31-3.31 3.314 3.314 0 0 0-3.31 3.31" />
        </symbol>
        <symbol id="icon-social-twitter" viewBox="0 0 32 32">
            <path
                d="M30.562 6.972a12.353 12.353 0 0 1-3.437.932 6.016 6.016 0 0 0 2.636-3.306 11.94 11.94 0 0 1-3.801 1.456 5.967 5.967 0 0 0-7.202-1.218 5.972 5.972 0 0 0-2.991 6.665A16.956 16.956 0 0 1 3.462 5.254a6.05 6.05 0 0 0-.801 3.014 5.962 5.962 0 0 0 2.65 4.966 5.894 5.894 0 0 1-2.708-.743v.073a5.965 5.965 0 0 0 4.806 5.824 5.764 5.764 0 0 1-1.602.248 7.016 7.016 0 0 1-1.121-.102 5.987 5.987 0 0 0 5.578 4.135 11.974 11.974 0 0 1-8.824 2.476 16.848 16.848 0 0 0 9.159 2.694 16.884 16.884 0 0 0 12.094-4.927 16.881 16.881 0 0 0 4.958-12.081v-.772a12.267 12.267 0 0 0 2.912-3.087z" />
        </symbol>
        <symbol id="icon-star" viewBox="0 0 32 32">
            <path stroke-linecap="round" stroke-linejoin="round" stroke-width="1.412"
                d="m16.028.954 4.486 9.089 10.032 1.466-7.259 7.071L25 28.569l-8.973-4.719-8.972 4.719 1.713-9.989-7.259-7.071 10.032-1.466L16.027.954z" />
        </symbol>
        <symbol id="icon-tv" viewBox="0 0 32 32">
            <path stroke-linecap="round" stroke-linejoin="round" stroke-width="2.667"
                d="m13 22.667-1 4L10.667 28h10.667l-1.333-1.333-1-4h-6zm-9-5.334zm2.667 5.334h18.667A2.668 2.668 0 0 0 28.001 20V6.667A2.668 2.668 0 0 0 25.334 4H6.667A2.668 2.668 0 0 0 4 6.667V20a2.668 2.668 0 0 0 2.667 2.667z" />
        </symbol>
        <symbol id="icon-wc" viewBox="0 0 32 32">
            <path
                d="M7.333 29.333v-10h-2V12c0-.733.261-1.361.783-1.883s1.15-.783 1.883-.783h4c.733 0 1.361.261 1.883.783s.783 1.15.783 1.883v7.333h-2v10H7.332zM10 8c-.733 0-1.361-.261-1.883-.783s-.783-1.15-.783-1.883c0-.733.261-1.361.783-1.883s1.15-.783 1.883-.783c.733 0 1.361.261 1.883.783s.783 1.15.783 1.883c0 .733-.261 1.361-.783 1.883S10.733 8 10 8zm10 21.333v-8h-4l3.4-10.2c.178-.578.506-1.022.983-1.333S21.4 9.333 22 9.333c.6 0 1.139.156 1.617.467s.806.756.983 1.333l3.4 10.2h-4v8h-4zM22 8c-.733 0-1.361-.261-1.883-.783s-.783-1.15-.783-1.883c0-.733.261-1.361.783-1.883s1.15-.783 1.883-.783c.733 0 1.361.261 1.883.783s.783 1.15.783 1.883c0 .733-.261 1.361-.783 1.883S22.733 8 22 8z" />
        </symbol>
        <symbol id="icon-weekend" viewBox="0 0 32 32">
            <path
                d="M5.333 9.333c0-1.111.389-2.056 1.167-2.833s1.722-1.167 2.833-1.167h13.333c1.111 0 2.056.389 2.833 1.167s1.167 1.722 1.167 2.833V12c1.111 0 2.056.389 2.833 1.167s1.167 1.722 1.167 2.833v6.667c0 1.111-.389 2.056-1.167 2.833s-1.722 1.167-2.833 1.167H5.333c-1.111 0-2.056-.389-2.833-1.167s-1.167-1.722-1.167-2.833V16c0-1.111.389-2.056 1.167-2.833S4.222 12 5.333 12V9.333zm2.667 0v3.733c.4.378.722.811.967 1.3s.367 1.033.367 1.633v2.667h13.333v-2.667c0-.6.122-1.144.367-1.633s.567-.922.967-1.3V9.333c0-.378-.128-.694-.383-.95S23.046 8 22.668 8H9.335c-.378 0-.694.128-.95.383s-.383.572-.383.95zm17.333 12H6.666V16c0-.178-.033-.35-.1-.517a1.275 1.275 0 0 0-.716-.716 1.39 1.39 0 0 0-.517-.1c-.378 0-.694.128-.95.383S4 15.622 4 16v6.667c0 .378.128.694.383.95s.572.383.95.383h21.333c.378 0 .694-.128.95-.383s.383-.572.383-.95V16c0-.378-.128-.694-.383-.95s-.572-.383-.95-.383c-.178 0-.35.033-.517.1a1.275 1.275 0 0 0-.716.716 1.39 1.39 0 0 0-.1.517v5.333z" />
        </symbol>
        <symbol id="icon-burger" viewBox="0 0 32 32">
            <path
                d="M31.054 26.188c0 0.804-0.652 1.455-1.455 1.455h-27.652c-0.804 0-1.455-0.652-1.455-1.455s0.652-1.455 1.455-1.455h27.652c0.804 0 1.455 0.652 1.455 1.455z">
            </path>
            <path
                d="M31.054 16c0 0.804-0.652 1.455-1.455 1.455l-16.009-0c-0.804 0-1.455-0.652-1.455-1.455s0.652-1.455 1.455-1.455l16.009 0c0.804 0 1.455 0.652 1.455 1.455z">
            </path>
            <path
                d="M29.598 7.268c0.804 0 1.455-0.652 1.455-1.455s-0.652-1.455-1.455-1.455h-24.741c-0.804 0-1.455 0.652-1.455 1.455s0.652 1.455 1.455 1.455h24.741z">
            </path>
        </symbol>
        <symbol id="icon-close" viewBox="0 0 32 32">
            <path
                d="M3.318 28.682c0.378 0.378 0.757 0.568 1.325 0.568s0.947-0.189 1.325-0.568l10.032-10.032 10.032 10.032c0.378 0.378 0.947 0.568 1.325 0.568s0.947-0.189 1.325-0.568c0.757-0.757 0.757-1.893 0-2.65l-10.032-10.032 10.032-10.032c0.757-0.757 0.757-1.893 0-2.65s-1.893-0.757-2.65 0l-10.032 10.032-10.032-10.032c-0.757-0.757-1.893-0.757-2.65 0s-0.757 1.893 0 2.65l10.032 10.032-10.032 10.032c-0.757 0.757-0.757 1.893 0 2.65z">
            </path>
        </symbol>
        <symbol id="icon-truck" viewBox="0 0 32 32">
            <path stroke-linejoin="round" stroke-linecap="round" stroke-miterlimit="4" stroke-width="2.6667"
                d="M29.038 17.449c0-5.607-4.882-10.141-14.487-10.141h-11.59M2.962 20.346h23.179c1.6 0 2.897-1.297 2.897-2.897v0">
            </path>
            <path stroke-linejoin="round" stroke-linecap="round" stroke-miterlimit="4" stroke-width="2.6667"
                d="M2.962 7.308v7.244h25.353M2.962 13.103v5.795M10.205 14.551v-7.244M17.449 14.551v-6.519M2.962 26.141h26.077">
            </path>
        </symbol>
        <symbol id="icon-France" viewBox="0 0 43 32">
            <path fill="#f50100" style="fill: var(--color17, #f50100)" d="M29.334 0h13.333v32h-13.334v-32z"></path>
            <path fill="#2e42a5" style="fill: var(--color18, #2e42a5)" d="M0 0h16v32h-16v-32z"></path>
            <path fill="#f7fcff" style="fill: var(--color11, #f7fcff)" d="M13.334 0h16v32h-16v-32z"></path>
        </symbol>
        <symbol id="icon-Germany" viewBox="0 0 43 32">
            <path fill="#ffd018" style="fill: var(--color15, #ffd018)" d="M0 21.333h42.667v10.667h-42.667v-10.667z">
            </path>
            <path fill="#e31d1c" style="fill: var(--color12, #e31d1c)" d="M0 10.667h42.667v10.666h-42.667v-10.666z">
            </path>
            <path fill="#272727" style="fill: var(--color16, #272727)" d="M0 0h42.667v10.667h-42.667v-10.667z"></path>
        </symbol>
        <symbol id="icon-Italy" viewBox="0 0 43 32">
            <path fill="#c51918" style="fill: var(--color2, #c51918)" d="M29.334 0h13.333v32h-13.334v-32z"></path>
            <path fill="#5eaa22" style="fill: var(--color14, #5eaa22)" d="M0 0h16v32h-16v-32z"></path>
            <path fill="#fff" style="fill: var(--color7, #fff)" d="M13.334 0h16v32h-16v-32z"></path>
        </symbol>
        <symbol id="icon-Netherlands" viewBox="0 0 43 32">
            <path fill="#f7fcff" style="fill: var(--color11, #f7fcff)" d="M0 0v32h42.667v-32h-42.667z"></path>
            <path fill="#e31d1c" style="fill: var(--color12, #e31d1c)" d="M0 0v10.667h42.667v-10.667h-42.667z"></path>
            <path fill="#3d58db" style="fill: var(--color13, #3d58db)" d="M0 21.333v10.667h42.667v-10.667h-42.667z">
            </path>
        </symbol>
        <symbol id="icon-Spain" viewBox="0 0 43 32">
            <path fill="#ffb400" style="fill: var(--color1, #ffb400)" d="M0 0v32h42.667v-32h-42.667z"></path>
            <path fill="#c51918" style="fill: var(--color2, #c51918)"
                d="M0 0v8h42.667v-8h-42.667zM0 24v8h42.667v-8h-42.667z"></path>
            <path fill="#f1f9ff" style="fill: var(--color3, #f1f9ff)" d="M6.678 13.696h1.493v7.765h-1.493z"></path>
            <path fill="#c88a02" style="fill: var(--color4, #c88a02)"
                d="M8.768 12.352h-2.688v0.746h0.448v0.598h1.792v-0.598h0.448v-0.746zM8.32 21.909h0.448v0.747h-2.688v-0.747h0.448v-0.597h1.792v0.597z">
            </path>
            <path fill="#ad1619" style="fill: var(--color5, #ad1619)"
                d="M7.424 12.501c0.325 0 0.358-0.122 0.55-0.305 0.149-0.142 0.495-0.318 0.495-0.516 0-0.454-0.468-0.822-1.045-0.822s-1.045 0.368-1.045 0.822c0 0.22 0.239 0.368 0.42 0.516 0.19 0.155 0.329 0.305 0.625 0.305z">
            </path>
            <path fill="#005bbf" style="fill: var(--color6, #005bbf)"
                d="M6.080 22.656h2.688v1.195s-0.336-0.15-0.672-0.15-0.672 0.15-0.672 0.15-0.336-0.15-0.672-0.15-0.672 0.15-0.672 0.15v-1.195z">
            </path>
            <path fill="#fff" style="fill: var(--color7, #fff)"
                d="M6.056 23.616l-0.058-0.143c0.242-0.108 0.485-0.162 0.728-0.162 0.157 0 0.24 0.022 0.379 0.084 0.087 0.046 0.19 0.072 0.299 0.072 0.007 0 0.015-0 0.022-0l-0.001 0c0.006 0 0.014 0 0.021 0 0.109 0 0.212-0.027 0.303-0.074l-0.004 0.002c0.103-0.053 0.226-0.084 0.355-0.084 0.009 0 0.017 0 0.026 0l-0.001-0c0.242 0 0.485 0.054 0.728 0.162l-0.060 0.143c-0.223-0.1-0.446-0.15-0.669-0.15-0.006-0-0.014-0-0.021-0-0.109 0-0.212 0.027-0.303 0.074l0.004-0.002c-0.104 0.053-0.226 0.084-0.355 0.084-0.008 0-0.017-0-0.025-0l0.001 0c-0.007 0-0.015 0-0.024 0-0.13 0-0.252-0.031-0.36-0.086l0.004 0.002c-0.087-0.046-0.19-0.072-0.299-0.072-0.007 0-0.015 0-0.022 0l0.001-0c-0.223 0-0.446 0.050-0.67 0.15zM6.056 23.168l-0.058-0.143c0.242-0.108 0.485-0.162 0.728-0.162 0.157 0 0.24 0.022 0.379 0.084 0.086 0.045 0.189 0.071 0.297 0.071 0.008 0 0.016-0 0.024-0l-0.001 0c0.007 0 0.015 0 0.023 0 0.109 0 0.211-0.026 0.301-0.073l-0.004 0.002c0.103-0.053 0.226-0.084 0.355-0.084 0.009 0 0.017 0 0.026 0l-0.001-0c0.242 0 0.485 0.054 0.728 0.162l-0.060 0.143c-0.223-0.1-0.446-0.15-0.669-0.15-0.006-0-0.014-0-0.021-0-0.109 0-0.212 0.027-0.303 0.074l0.004-0.002c-0.104 0.053-0.226 0.084-0.355 0.084-0.008 0-0.017-0-0.025-0l0.001 0c-0.007 0-0.015 0-0.024 0-0.13 0-0.252-0.031-0.36-0.086l0.004 0.002c-0.087-0.046-0.19-0.072-0.299-0.072-0.007 0-0.015 0-0.022 0l0.001-0c-0.223 0-0.446 0.050-0.67 0.15z">
            </path>
            <path fill="#f1f9ff" style="fill: var(--color3, #f1f9ff)" d="M21.312 13.696h1.493v7.765h-1.493z"></path>
            <path fill="#c88a02" style="fill: var(--color4, #c88a02)"
                d="M23.403 12.352h-2.688v0.746h0.448v0.598h1.792v-0.598h0.448v-0.746zM22.955 21.909h0.448v0.747h-2.688v-0.747h0.448v-0.597h1.792v0.597z">
            </path>
            <path fill="#ad1619" style="fill: var(--color5, #ad1619)"
                d="M22.059 12.501c0.325 0 0.358-0.122 0.55-0.305 0.148-0.142 0.495-0.318 0.495-0.516 0-0.454-0.468-0.821-1.045-0.821s-1.046 0.367-1.046 0.82c0 0.222 0.24 0.37 0.42 0.517 0.19 0.156 0.33 0.305 0.626 0.305z">
            </path>
            <path fill="#005bbf" style="fill: var(--color6, #005bbf)"
                d="M20.715 22.656h2.688v1.195s-0.336-0.15-0.672-0.15-0.672 0.15-0.672 0.15-0.336-0.15-0.672-0.15-0.672 0.15-0.672 0.15v-1.195z">
            </path>
            <path fill="#fff" style="fill: var(--color7, #fff)"
                d="M20.691 23.616l-0.059-0.143c0.242-0.108 0.485-0.162 0.729-0.162 0.157 0 0.24 0.022 0.379 0.084 0.087 0.046 0.19 0.072 0.299 0.072 0.007 0 0.015-0 0.022-0l-0.001 0c0.006 0 0.014 0 0.021 0 0.109 0 0.212-0.027 0.303-0.074l-0.004 0.002c0.103-0.053 0.226-0.084 0.355-0.084 0.008 0 0.017 0 0.025 0l-0.001-0c0.243 0 0.486 0.054 0.728 0.162l-0.058 0.143c-0.224-0.1-0.447-0.15-0.67-0.15-0.006-0-0.014-0-0.021-0-0.109 0-0.212 0.027-0.303 0.074l0.004-0.002c-0.103 0.053-0.226 0.084-0.355 0.084-0.009 0-0.017-0-0.026-0l0.001 0c-0.007 0-0.015 0-0.023 0-0.13 0-0.252-0.031-0.36-0.086l0.004 0.002c-0.087-0.046-0.19-0.072-0.299-0.072-0.007 0-0.015 0-0.022 0l0.001-0c-0.223 0-0.446 0.050-0.67 0.15zM20.691 23.168l-0.059-0.143c0.242-0.108 0.485-0.162 0.729-0.162 0.157 0 0.24 0.022 0.379 0.084 0.086 0.045 0.189 0.071 0.297 0.071 0.008 0 0.016-0 0.024-0l-0.001 0c0.007 0 0.015 0 0.023 0 0.109 0 0.211-0.026 0.301-0.073l-0.004 0.002c0.103-0.053 0.226-0.084 0.355-0.084 0.008 0 0.017 0 0.025 0l-0.001-0c0.243 0 0.486 0.054 0.728 0.162l-0.058 0.143c-0.224-0.1-0.447-0.15-0.67-0.15-0.006-0-0.014-0-0.021-0-0.109 0-0.212 0.027-0.303 0.074l0.004-0.002c-0.103 0.053-0.226 0.084-0.355 0.084-0.009 0-0.017-0-0.026-0l0.001 0c-0.007 0-0.015 0-0.023 0-0.13 0-0.252-0.031-0.36-0.086l0.004 0.002c-0.087-0.046-0.19-0.072-0.299-0.072-0.007 0-0.015 0-0.022 0l0.001-0c-0.223 0-0.446 0.050-0.67 0.15z">
            </path>
            <path fill="#ad1619" style="fill: var(--color5, #ad1619)"
                d="M22.275 19.968c0 0.315 0.15 0.612 0.42 0.939l0.917-0.757 0.087-0.027 0.050-0.382c0.090-0.706-0.212-1.097-0.834-1.38l-0.043-0.018c-0.085-0.038-0.271-0.12-0.334-0.15-0.13-0.061-0.242-0.127-0.346-0.202l0.006 0.004c-0.1-0.073-0.207-0.141-0.336-0.216 0.77-0.123 1.185-0.215 1.504-0.352 0.764-0.329 0.862-1.093 0.128-1.598-1-0.689-3.677-0.75-4.852-0.144l0.548 1.062c0.576-0.298 1.887-0.354 2.805-0.201-0.14 0.024-0.296 0.050-0.471 0.077l-0.525 0.082c-0.366 0.057-0.617 0.129-0.802 0.255-0.201 0.129-0.333 0.351-0.333 0.604 0 0.176 0.064 0.337 0.169 0.461l-0.001-0.001c0.115 0.145 0.264 0.253 0.49 0.384 0.072 0.042 0.15 0.085 0.254 0.14l0.055 0.030 0.202 0.107c0.215 0.116 0.357 0.2 0.462 0.276 0.165 0.12 0.334 0.218 0.527 0.31 0.103 0.050 0.4 0.179 0.398 0.178l0.018 0.008c-0.102 0.138-0.163 0.311-0.163 0.499 0 0.004 0 0.008 0 0.012v-0.001zM6.651 20.907c0.27-0.327 0.42-0.624 0.42-0.94 0-0.198-0.060-0.37-0.163-0.51l0.018-0.008c-0.002 0 0.295-0.129 0.398-0.178 0.202-0.096 0.375-0.199 0.537-0.317l-0.010 0.007c0.105-0.077 0.247-0.16 0.462-0.276l0.202-0.107 0.055-0.030c0.127-0.066 0.211-0.113 0.293-0.161l-0.038 0.021c0.225-0.13 0.374-0.239 0.488-0.384 0.105-0.123 0.168-0.285 0.168-0.461 0-0.253-0.131-0.475-0.33-0.602l-0.003-0.002c-0.185-0.126-0.436-0.198-0.802-0.255l-0.076-0.012-0.449-0.070c-0.317-0.046-0.477-0.073-0.636-0.101l0.165 0.024c0.918-0.153 2.229-0.097 2.805 0.2l0.548-1.060c-1.175-0.607-3.852-0.546-4.852 0.143-0.734 0.505-0.636 1.27 0.128 1.598 0.319 0.137 0.734 0.229 1.504 0.352-0.132 0.075-0.241 0.147-0.347 0.224l0.011-0.008c-0.1 0.073-0.209 0.136-0.34 0.198-0.063 0.030-0.249 0.112-0.334 0.15l-0.043 0.019c-0.622 0.282-0.923 0.673-0.833 1.38l0.049 0.381 0.087 0.027 0.917 0.757zM5.883 19.919l-0.002 0.005 0.001-0.003v-0.002z">
            </path>
            <path fill="#f1f9ff" style="fill: var(--color3, #f1f9ff)"
                d="M7.898 16.533l0.44 0.091v0.657c-0.469 0.375-1.66 1.006-1.66 1.006v-1.754h1.22zM21.754 16.533l-0.441 0.091v0.657c0.47 0.375 1.661 1.006 1.661 1.006v-1.754h-1.22z">
            </path>
            <path fill="#ad1619" style="fill: var(--color5, #ad1619)"
                d="M19.701 9.608v-0.219c-0.768-0.551-1.572-0.827-2.413-0.827-0.587-0.275-1.275-0.435-2.001-0.435-0.159 0-0.317 0.008-0.472 0.023l0.020-0.002v0.071c-0.044 0.519-0.286 3.533 0 4.004v-4.003zM14.835 12.235v0.004s1.966-0.054 2.104-0.1c0.055-0.018 0.112-0.034 0.17-0.051 0.385-0.113 0.825-0.241 1.086-0.966l1.506-1.513z">
            </path>
            <path fill="#c88a02" style="fill: var(--color4, #c88a02)"
                d="M11.085 10.866l0.008 0.002 0.304 0.285-0.021-0.041c0.040 0.073 0.079 0.147 0.138 0.266 0.037 0.149 0.093 0.315 0.173 0.416l-0.001-0.002c0.006 0.023 0.010 0.048 0.011 0.073 0 0.154 0.401 0.245 1.182 0.34l-0.093-0.009c0.657 0.080 1.325 0.127 2.019 0.139h0.151c0.591-0.008 1.313-0.057 1.925-0.13 0.783-0.095 1.183-0.186 1.183-0.34 0-0.101 0.1-0.344 0.3-0.711l1.37-1.29-0.103-0.108-1.1 1.036-0.048-0.217c-0.162 0.035-0.281 0.048-0.351 0.040v-0.203l-0.22 0.12c-0.108 0.058-0.264 0.074-0.468 0.040-0.15-0.024-0.252-0.198-0.285-0.57l-0.067-0.751-0.224 0.72c-0.102 0.325-0.257 0.469-0.477 0.469-0.216 0-0.302-0.079-0.312-0.278l-0.027-0.565-0.255 0.505c-0.092 0.181-0.219 0.264-0.399 0.264-0.258 0-0.43-0.216-0.43-0.553h-0.303c0 0.337-0.173 0.553-0.43 0.553-0.18 0-0.308-0.083-0.4-0.264l-0.255-0.505-0.027 0.565c-0.010 0.198-0.096 0.278-0.312 0.278-0.22 0-0.375-0.144-0.477-0.469l-0.224-0.719-0.067 0.75c-0.033 0.372-0.135 0.546-0.285 0.57-0.204 0.034-0.359 0.018-0.468-0.040l-0.221-0.12v0.203c-0.068 0.008-0.187-0.005-0.35-0.041l-0.025 0.117-0.995-0.935-0.103 0.108 1.060 0.997-0.001 0.005zM18.426 10.89l-0.173 0.162-0.015 0.020 0.019-0.038c-0.052 0.094-0.102 0.189-0.169 0.328 0.040-0.166 0.056-0.308 0.056-0.308s-0.669-0.19-1.625-0.326l0.004-0.001c0.174-0.031 0.326-0.127 0.429-0.264 0.088 0.231 0.234 0.37 0.444 0.404l-0.008-0.001c0.076 0.015 0.154 0.023 0.234 0.023 0.102 0 0.202-0.013 0.288-0.036 0.094 0.077 0.27 0.080 0.515 0.037zM16.068 10.671c-0.143-0.015-0.29-0.029-0.44-0.041l0.005-0.001c0.089-0.029 0.17-0.075 0.238-0.136l0.001 0.002c0.047 0.075 0.114 0.135 0.196 0.176zM15.101 10.601c-0.080-0.002-0.161-0.005-0.242-0.005h-0.12c-0.069 0.001-0.137 0.002-0.206 0.005l0.004-0.002c0.113-0.055 0.209-0.14 0.279-0.248l0.002 0.003c0.068 0.105 0.165 0.191 0.283 0.247zM11.497 11.042l-0.14-0.13c0.168 0.016 0.291 0 0.365-0.060 0.146 0.043 0.318 0.047 0.514 0.015 0.21-0.034 0.356-0.173 0.444-0.404 0.101 0.133 0.246 0.228 0.414 0.261l0.004 0.001c-0.823 0.116-1.438 0.273-1.601 0.317zM13.997 10.628c-0.144 0.011-0.286 0.024-0.424 0.039 0.079-0.041 0.143-0.1 0.188-0.172l0.001-0.002c0.070 0.061 0.148 0.107 0.236 0.135zM17.671 11.868c0.105 0.049 0.189 0 0.255-0.094-0.005 0.020-0.008 0.044-0.010 0.068l-0 0.002c-0.011 0.007-0.024 0.014-0.038 0.019l-0.002 0.001c-0.050 0.021-0.125 0.043-0.223 0.066-0.21 0.047-0.48 0.092-0.753 0.123l-0.037 0.003c-0.632 0.076-1.384 0.126-1.983 0.13-0.71-0.009-1.398-0.056-2.074-0.139l0.091 0.009c-0.311-0.034-0.58-0.079-0.844-0.136l0.054 0.010c-0.078-0.017-0.144-0.036-0.208-0.059l0.012 0.004c0.007-0.003 0.012-0.005 0.017-0.008l-0.001 0.001c0.326-0.153 2.484-0.296 2.872-0.32 0.388 0.024 2.546 0.167 2.872 0.32zM18.083 11.841h-0.002v0.002l0.001-0.002h0.001z">
            </path>
            <path fill="#005bbf" style="fill: var(--color6, #005bbf)"
                d="M14.817 7.13c0.248 0 0.448-0.201 0.448-0.449s-0.201-0.449-0.448-0.449v0c-0.247 0-0.448 0.201-0.448 0.448s0.201 0.448 0.448 0.448v0z">
            </path>
            <path fill="#c88a02" style="fill: var(--color4, #c88a02)"
                d="M14.525 9.33c0.010 0.048 0.025 0.094 0.043 0.135-0.058-0.022-0.126-0.035-0.196-0.035-0.001 0-0.003 0-0.004 0h0c-0.206 0-0.373 0.1-0.373 0.224s0.167 0.224 0.374 0.224c0.2 0 0.365-0.096 0.373-0.215 0.007 0.12 0.171 0.215 0.373 0.215 0.206 0 0.373-0.1 0.373-0.224s-0.167-0.224-0.373-0.224c-0 0-0.001 0-0.001 0-0.052 0-0.101 0.007-0.149 0.019l0.004-0.001c0.005-0.027 0.007-0.059 0.007-0.091 0-0.040-0.004-0.079-0.012-0.117l0.001 0.004c-0.040-0.203-0.17-0.348-0.291-0.324-0.122 0.023-0.188 0.207-0.149 0.41zM12.328 9.614c-0.018-0.039-0.033-0.085-0.042-0.132l-0.001-0.004c-0.040-0.202 0.027-0.385 0.149-0.409 0.121-0.023 0.251 0.121 0.29 0.324 0.007 0.034 0.011 0.073 0.011 0.113 0 0.032-0.003 0.064-0.008 0.094l0-0.003c0.044-0.011 0.094-0.018 0.145-0.018 0.001 0 0.001 0 0.002 0h-0c0.206 0 0.373 0.1 0.373 0.224s-0.167 0.224-0.373 0.224c-0.203 0-0.368-0.097-0.373-0.217-0.006 0.12-0.171 0.217-0.374 0.217-0.206 0-0.373-0.1-0.373-0.224 0-0.123 0.167-0.224 0.373-0.224 0.074 0 0.142 0.013 0.2 0.035zM17.005 9.751c-0.017 0.122-0.197 0.198-0.4 0.17-0.205-0.029-0.357-0.152-0.34-0.274 0.018-0.123 0.197-0.199 0.402-0.17 0.072 0.010 0.139 0.032 0.193 0.062-0.013-0.041-0.021-0.089-0.024-0.139l-0-0.001c-0.010-0.206 0.080-0.378 0.204-0.385s0.233 0.156 0.243 0.362c0.001 0.011 0.001 0.023 0.001 0.035 0 0.060-0.009 0.117-0.026 0.171l0.001-0.004c0.018-0.002 0.040-0.003 0.061-0.003 0.030 0 0.060 0.002 0.089 0.007l-0.003-0c0.204 0.029 0.356 0.151 0.339 0.274s-0.197 0.198-0.401 0.17c-0.204-0.030-0.356-0.152-0.339-0.274l0.001-0.007v0.007zM18.427 10.343c0.182 0.097 0.377 0.087 0.435-0.023l0.003-0.005c0.018 0.019 0.040 0.032 0.063 0.040 0.119 0.036 0.263-0.095 0.324-0.292 0.060-0.197 0.013-0.386-0.105-0.422s-0.264 0.094-0.324 0.291c-0.013 0.041-0.022 0.089-0.025 0.138l-0 0.002c-0.045-0.050-0.098-0.092-0.157-0.124l-0.003-0.001c-0.182-0.096-0.377-0.086-0.435 0.023s0.042 0.276 0.224 0.373zM11.1 10.389c-0.183 0.097-0.377 0.087-0.435-0.023l-0.003-0.006c-0.017 0.018-0.038 0.032-0.062 0.040l-0.001 0c-0.119 0.037-0.264-0.094-0.324-0.291s-0.013-0.386 0.105-0.423c0.119-0.036 0.263 0.095 0.324 0.292 0.013 0.041 0.022 0.089 0.025 0.138l0 0.002c0.045-0.050 0.098-0.092 0.157-0.124l0.003-0.001c0.182-0.097 0.377-0.087 0.435 0.023s-0.043 0.276-0.224 0.373zM14.649 5.435h0.311v0.197h0.204v0.311h-0.204v0.622h0.204v0.311h-0.721v-0.31h0.206v-0.623h-0.206v-0.31h0.206v-0.198z">
            </path>
            <path fill="#c88a02" style="fill: var(--color4, #c88a02)" d="M14.592 7.125h0.597v1.941h-0.597z"></path>
            <path fill="#fff" style="fill: var(--color7, #fff)"
                d="M12.188 7.45l-0.003 0.15c-1.324-0.023-2.084 0.17-2.276 0.555-0.2 0.398-0.163 0.882 0.117 1.457l-0.135 0.065c-0.298-0.613-0.338-1.144-0.116-1.589 0.229-0.457 1.032-0.662 2.413-0.638z">
            </path>
            <path fill="#fff" style="fill: var(--color7, #fff)"
                d="M12.444 8.775l-0.077 0.128c-0.288-0.172-0.433-0.466-0.433-0.871 0-0.582 0.3-0.923 0.963-1.157 0.423-0.149 1.002-0.088 1.736 0.178l-0.050 0.14c-0.706-0.255-1.252-0.313-1.636-0.177-0.608 0.214-0.863 0.504-0.863 1.016 0 0.355 0.12 0.6 0.36 0.743z">
            </path>
            <path fill="#c88a02" style="fill: var(--color4, #c88a02)"
                d="M10.214 9.383l-0.282 0.099c-0.292-0.832-0.209-1.398 0.29-1.642 0.44-0.215 1.083-0.302 1.929-0.268l-0.012 0.299c-0.802-0.033-1.398 0.048-1.785 0.238-0.329 0.16-0.389 0.567-0.14 1.274z">
            </path>
            <path fill="#c88a02" style="fill: var(--color4, #c88a02)"
                d="M13.506 7.251c-0.683 0-0.963 0.167-1.123 0.658-0.103 0.313-0.004 0.58 0.317 0.83l-0.183 0.235c-0.415-0.323-0.562-0.718-0.418-1.158 0.204-0.626 0.604-0.863 1.407-0.863 0.526 0 0.936 0.138 1.221 0.42l0.045 0.043v1.44h-0.299v-1.312c-0.223-0.194-0.543-0.293-0.967-0.293z">
            </path>
            <path fill="#fff" style="fill: var(--color7, #fff)"
                d="M17.4 7.6l0.002 0.149c1.324-0.023 2.083 0.17 2.276 0.555 0.2 0.398 0.162 0.882-0.117 1.457l0.134 0.066c0.299-0.614 0.34-1.145 0.117-1.59-0.23-0.457-1.033-0.661-2.413-0.637z">
            </path>
            <path fill="#fff" style="fill: var(--color7, #fff)"
                d="M16.932 8.806l0.077 0.128c0.288-0.172 0.432-0.466 0.432-0.871 0-0.582-0.3-0.923-0.963-1.157-0.423-0.149-1.001-0.088-1.736 0.179l0.051 0.14c0.705-0.256 1.251-0.313 1.636-0.178 0.608 0.214 0.863 0.504 0.863 1.016 0 0.355-0.12 0.6-0.36 0.743z">
            </path>
            <path fill="#c88a02" style="fill: var(--color4, #c88a02)"
                d="M19.466 9.532l0.282 0.1c0.292-0.833 0.209-1.398-0.29-1.642-0.441-0.215-1.083-0.303-1.929-0.268l0.012 0.298c0.801-0.032 1.397 0.049 1.785 0.238 0.328 0.16 0.389 0.567 0.14 1.274z">
            </path>
            <path fill="#c88a02" style="fill: var(--color4, #c88a02)"
                d="M16.156 7.275c0.683 0 0.964 0.166 1.124 0.657 0.102 0.313 0.003 0.58-0.318 0.83l0.183 0.235c0.416-0.323 0.562-0.718 0.419-1.158-0.204-0.626-0.605-0.863-1.408-0.863-0.526 0-0.936 0.138-1.22 0.42l-0.045 0.043v1.44h0.298v-1.312c0.223-0.194 0.543-0.292 0.967-0.292z">
            </path>
            <path fill="#e1e5e8" style="fill: var(--color8, #e1e5e8)" opacity="0.3"
                d="M9.963 12.352h9.706v8.721s-0.719 2.927-4.853 2.927c-4.132 0-4.853-3.004-4.853-3.004v-8.644z"></path>
            <path fill="#ffc034" style="fill: var(--color9, #ffc034)" d="M9.963 17.728h4.928v5.824h-4.928z"></path>
            <path fill="#ad1619" style="fill: var(--color5, #ad1619)"
                d="M10.56 18.027h0.597v5.525h-0.597zM12.651 18.027h0.597v5.525h-0.597zM11.605 18.027h0.597v5.525h-0.597zM13.696 18.027h0.597v5.525h-0.597zM9.963 12.203h4.928v5.675h-4.928z">
            </path>
            <path fill="#ad1619" style="fill: var(--color5, #ad1619)" d="M14.742 17.579h4.928v5.675h-4.928z"></path>
            <path fill="#f1f9ff" style="fill: var(--color3, #f1f9ff)" d="M14.742 12.352h5.227v5.525h-5.227z"></path>
            <path fill="#c88a02" style="fill: var(--color4, #c88a02)"
                d="M12.054 12.8h0.448v1.239h0.298v-0.62h0.448v0.62h0.448v0.774h-0.448v1.394h0.448v0.774h-2.688v-0.774h0.448v-1.394h-0.448v-0.774h0.299v-0.62h0.448v0.62h0.3v-1.239z">
            </path>
            <path fill="#c37c9c" style="fill: var(--color10, #c37c9c)"
                d="M17.105 13.769c-0.006 0.002-0.008 0.002-0.003 0.004 0.056 0.020 0.137 0.088 0.237 0.23-0.054 0.036-0.116 0.067-0.182 0.091l-0.006 0.002c-0.107 0.041-0.233 0.076-0.363 0.098l-0.012 0.002 0.006 0.041c-0.126-0.076-0.232-0.172-0.318-0.283l-0.002-0.003c-0.097-0.121-0.207-0.226-0.33-0.315l-0.005-0.003c-0.020-0.014-0.044-0.029-0.070-0.045l-0.006-0.003 0.014-0.037-0.416-0.165c-0.112 0.281-0.122 0.399 0.062 0.523l0.049 0.028c0.039 0.023 0.090 0.052 0.114 0.068 0.074 0.050 0.152 0.124 0.242 0.233 0.236 0.286 0.484 0.457 0.741 0.496l0.030 0.203c0.030-0.004 0.060-0.010 0.093-0.016 0.058 0.102 0.114 0.197 0.167 0.286-0.014 0-0.026 0.001-0.039 0.002l0.003-0c-0.248 0.026-0.378 0.227-0.3 0.484 0.027 0.091 0.063 0.182 0.112 0.294l0.050 0.116c-0.207-0.059-0.317-0.081-0.403-0.079-0.227 0.007-0.31 0.171-0.28 0.362l0.443-0.070c0.007 0.042-0.049 0.153-0.15 0.156 0.032 0 0.149 0.026 0.379 0.094 0.308 0.090 0.556 0.017 0.538-0.29-0.009-0.089-0.032-0.17-0.068-0.244l0.002 0.004c-0.073-0.178-0.106-0.253-0.141-0.329l0.041 0.1c-0.013-0.027-0.033-0.073-0.052-0.119l-0.007-0.021c0.049 0.010 0.11 0.025 0.18 0.045l0.016 0.005 0.052 0.073c0.068 0.093 0.071 0.118 0.056 0.16-0.005 0.012-0.011 0.028-0.016 0.044l-0.001 0.004c-0.006 0.019-0.009 0.040-0.009 0.062 0 0.013 0.001 0.026 0.003 0.038l-0-0.001c0.018 0.097 0.086 0.152 0.219 0.214l0.125-0.271c-0.015-0.007-0.025-0.012-0.035-0.017l0.004 0.002c0.010-0.032 0.016-0.069 0.016-0.107 0-0.029-0.003-0.056-0.010-0.083l0 0.002c0.042 0.010 0.077 0.014 0.111 0.014v-0.449c-0.014 0-0.043-0.009-0.299-0.089-0.008-0.004-0.059-0.020-0.11-0.035l-0.043-0.011c-0.076-0.122-0.161-0.263-0.255-0.425 0.044-0.013 0.090-0.029 0.134-0.046 0.234-0.088 0.42-0.2 0.547-0.362 0.195-0.25 0.195-0.565-0.005-0.851-0.352-0.502-0.766-0.651-1.121-0.51-0.048 0.019-0.090 0.043-0.128 0.071l0.002-0.001 0.443 0.6c-0.012 0.009-0.025 0.017-0.039 0.024l-0.001 0-0.007 0.003z">
            </path>
            <path fill="#c88a02" style="fill: var(--color4, #c88a02)"
                d="M17.305 13.060l0.306-0.327 0.642 0.6-0.306 0.327-0.642-0.6z"></path>
            <path fill="#ffc034" style="fill: var(--color9, #ffc034)"
                d="M19.147 21.52v-3.27h-3.733v3.243l0.005 0.025c0.19 0.805 0.833 1.212 1.861 1.212s1.67-0.396 1.86-1.184l0.007-0.026zM17.28 22.283c-0.825 0-1.276-0.278-1.419-0.843v-2.741h2.837v2.767c-0.142 0.546-0.593 0.817-1.418 0.817z">
            </path>
            <path fill="#ffc034" style="fill: var(--color9, #ffc034)"
                d="M17.434 18.524h-0.31v1.482l-1.227-1.334-0.22 0.202 1.11 1.207h-1.007v0.448h1.030l-1.134 1.233 0.22 0.202 1.226-1.334v1.732h0.311v-1.576l1.084 1.178 0.22-0.202-1.134-1.233h1.265v-0.448h-1.24l1.109-1.207-0.22-0.202-1.084 1.178v-1.326z">
            </path>
            <path fill="#f1f9ff" style="fill: var(--color3, #f1f9ff)"
                d="M17.977 23.257s-3.163 0.248-3.163-1.792c0 0-0.030 1.792-3.333 1.792v1.61h6.496v-1.61z"></path>
            <path fill="#005bbf" style="fill: var(--color6, #005bbf); stroke: var(--color5, #ad1619)" stroke="#ad1619"
                stroke-linejoin="miter" stroke-linecap="butt" stroke-miterlimit="4" stroke-width="1.556"
                d="M14.816 18.923c0.618 0 1.12-0.535 1.12-1.195s-0.502-1.195-1.12-1.195c-0.619 0-1.12 0.535-1.12 1.195s0.501 1.195 1.12 1.195z">
            </path>
        </symbol>
    </defs>
</svg>