<svg xmlns="http://www.w3.org/2000/svg" width="160" height="29" fill="none"><g clip-path="url(#a)"><path fill="#656C72" d="M14.74.003V5.709c-.997-.004-1.877 0-2.617.012-.766.01-1.398.025-2.213.134-.545.073-.92.154-1.297.271-.47.146-.809.25-1.163.484-.728.476-1.472 1.456-1.293 2.418.045.238.133.408.217.57a2.936 2.936 0 0 0 1.23 1.244c1.19.58 2.49.776 3.791.8 2.87.054 5.742.015 8.612.045 2.046.021 4.079.196 5.995.982 3.312 1.358 5.1 3.807 5.177 7.376.075 3.52-1.485 6.09-4.716 7.626-1.624.772-3.37 1.092-5.138 1.24-1.465.122-2.944.1-4.416.162-.36.016-.486-.074-.48-.456.023-1.57.023-3.14 0-4.71-.006-.391.103-.494.5-.497 1.85-.009 3.714.02 5.5-.545.648-.206 1.316-.51 1.833-.938 1.223-1.014 1.022-2.773-.337-3.603-1.257-.768-2.68-.895-4.09-.92-2.965-.055-5.933-.005-8.898-.026-2.205-.016-4.364-.293-6.38-1.265-3.397-1.636-4.9-4.762-4.492-8.24C.505 4.11 2.737 1.763 6.448.76c2.71-.732 5.47-.774 8.292-.757Z"/><path fill="#0D6EFD" d="M16.455 5.665V.033H30.52v11.869c-.133-.035-.256-.053-.366-.099-1.807-.748-3.608-1.51-5.423-2.239-.328-.131-.398-.308-.393-.623.018-.896-.02-1.795.018-2.691.018-.458-.103-.602-.584-.598-2.23.026-4.46.012-6.689.012h-.627v.001ZM14.82 23.421v5.62H.032c.067-.172.117-.325.185-.47.721-1.579 1.435-3.159 2.176-4.727.084-.177.323-.406.49-.406 3.964-.022 7.927-.017 11.937-.017h-.002Z"/><path stroke="#fff" stroke-miterlimit="10" stroke-width=".392" d="M13.66 2.571h-.505"/><path stroke="#fff" stroke-dasharray="0.92 0.92" stroke-miterlimit="10" stroke-width=".392" d="M12.138 2.599c-.382.017-.8.043-1.249.081-2.35.205-3.655.333-5.005 1.177a6.336 6.336 0 0 0-1.835 1.726c-.31.45-1.134 1.686-1.026 3.354.105 1.618 1.029 2.707 1.287 3.003 1.66 1.903 4.298 2.13 7.378 2.354 1.567.113 1.425-.028 4.565-.02 4.17.01 6.29.032 7.982.768 1.011.44 3.314 1.444 3.972 3.698.482 1.654-.168 3.136-.272 3.363-.108.24-.61 1.287-2.118 2.316-2.445 1.667-5.48 1.884-7.277 1.851"/><path stroke="#fff" stroke-miterlimit="10" stroke-width=".392" d="M18.032 26.253c-.193-.009-.362-.02-.505-.032"/><path fill="#fff" d="M37.692 26.051v2.772h-4.028V22.76h10.524c.84 0 1.208-.52 1.208-1.11 0-.556-.404-1.04-1.208-1.04H33.682l2.68-3.38h7.233c3.732 0 5.869 1.835 5.869 4.433s-2.137 4.384-5.882 4.384H37.7l-.008.004ZM63.274 28.823l-2.223-2.874h-5.288v2.874h-4.046V22.76h10.596c.965 0 1.49-.329 1.49-1.093s-.525-1.057-1.49-1.057H51.735l2.645-3.38h7.426c2.644 0 6.2.777 6.2 4.21 0 1.733-1.033 3.256-2.855 3.692.314.208 1.104.901 2.698 2.736l.84.955h-5.415ZM70.502 28.822V17.234h4.046v11.588h-4.046ZM80.905 22.605v6.218h-3.677v-9.354c0-1.733 1.032-2.443 2.204-2.443.49 0 .966.12 1.612.675l6.636 5.77v-6.236h3.677v9.371c0 1.732-1.05 2.443-2.222 2.443-.508 0-.966-.137-1.612-.693l-6.618-5.752ZM98.168 28.823V20.61h-5.325l2.626-3.38h13.236l-2.626 3.38h-3.852v8.213h-4.064.005ZM110.268 28.822V17.234h13.85l-2.626 3.38h-7.161v.969h9.069l-2.258 2.825h-6.811V25.5h9.805l-2.59 3.327h-11.278v-.005ZM137.341 28.822l-2.223-2.873h-5.289v2.873h-4.045V22.76h10.596c.965 0 1.491-.329 1.491-1.093s-.526-1.057-1.491-1.057h-10.578l2.645-3.38h7.426c2.644 0 6.2.777 6.2 4.21 0 1.733-1.033 3.256-2.856 3.691.315.21 1.105.902 2.699 2.736l.839.955h-5.414ZM143.819 28.823l2.609-3.327h8.845c.525 0 .821-.191.821-.609 0-.417-.296-.608-.857-.608h-6.618c-3.031 0-4.413-1.404-4.413-3.363 0-2.336 1.472-3.69 5.131-3.69h10.331l-2.608 3.38h-8.109c-.543 0-.822.137-.822.555 0 .417.279.573.822.573h6.654c2.837 0 4.395 1.092 4.395 3.202 0 2.39-1.154 3.882-4.781 3.882h-11.4v.005ZM37.903 8.908v4.228h-.569V9.44h-1.966v3.697h-.569V8.908h3.104ZM39.69 12.605h1.982v.531h-2.551V8.908h2.522v.531H39.69v1.297h1.8v.525h-1.8V12.605ZM44.214 8.908c.395 0 .723.13.987.391.263.261.395.582.395.97s-.132.706-.395.966c-.264.261-.592.395-.987.395h-.983v1.51h-.569V8.912h1.552v-.004Zm0 2.194c.235 0 .43-.08.585-.239a.818.818 0 0 0 .231-.594.82.82 0 0 0-.23-.598.792.792 0 0 0-.586-.235h-.983v1.666h.983ZM47.138 12.605h1.983v.531H46.57V8.908h2.522v.531h-1.954v1.297h1.8v.525h-1.8V12.605ZM52.556 10.946c.196.092.35.226.466.398.116.171.173.371.173.597 0 .337-.118.623-.36.852a1.23 1.23 0 0 1-.88.343h-1.844V8.908h1.71c.333 0 .616.112.847.331.232.223.347.496.347.82 0 .375-.154.668-.462.88l.003.007Zm-.733-1.51h-1.14v1.294h1.14c.18 0 .331-.064.453-.188a.627.627 0 0 0 .183-.457.61.61 0 0 0-.186-.455.606.606 0 0 0-.45-.19v-.004Zm.132 3.176a.68.68 0 0 0 .678-.69.655.655 0 0 0-.2-.483.65.65 0 0 0-.478-.2h-1.276v1.37h1.276v.003ZM54.172 8.908h.569v4.228h-.569V8.908ZM58.019 10.953c.218.092.392.229.514.403.122.178.183.388.183.63 0 .362-.138.658-.411.887-.276.229-.64.343-1.09.343-.41 0-.742-.092-.992-.273a1.425 1.425 0 0 1-.527-.7l.482-.273c.125.477.472.712 1.038.712.295 0 .527-.067.69-.197a.632.632 0 0 0 .245-.521.663.663 0 0 0-.228-.525c-.151-.133-.367-.2-.64-.2h-.501v-.515h.36c.26 0 .469-.064.623-.191a.615.615 0 0 0 .231-.5.617.617 0 0 0-.215-.492c-.144-.127-.344-.19-.6-.19-.473 0-.788.206-.945.623L55.76 9.7c.257-.585.73-.874 1.424-.874.41 0 .745.111.999.337a1.1 1.1 0 0 1 .382.858c0 .404-.18.712-.536.925l-.01.007ZM62.334 8.908h.563v4.228h-.563v-1.904h-2.076v1.904h-.568V8.908h.568v1.793h2.076V8.908ZM66.775 13.136V9.983l-2.198 3.153h-.456V8.908h.569v3.16l2.198-3.16h.456v4.228h-.569ZM71.67 13.136h-.698l-1.844-2.028v2.028h-.57V8.908h.57v1.908l1.783-1.908h.697l-1.886 2.054 1.947 2.174ZM75.14 13.136V9.983l-2.198 3.153h-.456V8.908h.568v3.16l2.198-3.16h.457v4.228h-.57ZM80.744 12.666c.292 0 .562-.07.806-.21.245-.14.425-.324.544-.553l.494.277a1.93 1.93 0 0 1-.758.753c-.33.188-.69.28-1.086.28-.643 0-1.173-.213-1.587-.636-.415-.423-.624-.94-.624-1.558 0-.616.209-1.14.624-1.56.414-.42.944-.633 1.587-.633.392 0 .752.092 1.08.276.327.185.585.436.764.75l-.494.284a1.391 1.391 0 0 0-.547-.56c-.24-.14-.51-.21-.803-.21-.444 0-.813.13-1.105.388-.293.258-.47.591-.524.995h2.198v.525h-2.198c.058.407.231.737.524.995.292.257.662.387 1.105.387v.01ZM85.975 10.946c.196.092.35.226.466.398.116.171.174.371.174.597 0 .337-.12.623-.36.852a1.23 1.23 0 0 1-.88.343H83.53V8.908h1.71c.334 0 .617.112.848.331.231.223.347.496.347.82 0 .375-.154.668-.463.88l.003.007Zm-.732-1.51h-1.141v1.294h1.14c.18 0 .332-.064.454-.188a.627.627 0 0 0 .183-.457.61.61 0 0 0-.186-.455.606.606 0 0 0-.45-.19v-.004Zm.135 3.176a.68.68 0 0 0 .678-.69.656.656 0 0 0-.2-.483.65.65 0 0 0-.478-.2h-1.276v1.37h1.276v.003ZM89.144 8.908c.395 0 .722.13.986.391s.395.582.395.97-.132.706-.395.966c-.263.261-.591.395-.986.395h-.984v1.51h-.569V8.912h1.553v-.004Zm0 2.194c.234 0 .43-.08.584-.239a.818.818 0 0 0 .232-.594.82.82 0 0 0-.232-.598.791.791 0 0 0-.584-.235h-.984v1.666h.984ZM95.027 12.577a2.15 2.15 0 0 1-1.571.639c-.617 0-1.14-.213-1.568-.639a2.112 2.112 0 0 1-.643-1.551c0-.607.215-1.132.643-1.555.427-.426.95-.636 1.568-.636.617 0 1.144.213 1.571.636.428.423.643.944.643 1.555 0 .61-.215 1.125-.643 1.551Zm-2.747-.385c.315.318.707.474 1.176.474s.861-.159 1.176-.474a1.59 1.59 0 0 0 .472-1.17 1.61 1.61 0 0 0-.472-1.176 1.598 1.598 0 0 0-1.176-.473c-.47 0-.861.159-1.176.473a1.604 1.604 0 0 0-.473 1.177c0 .467.158.851.473 1.17ZM99.76 8.908v4.228h-.568V9.44h-1.967v3.697h-.568V8.908h3.104ZM103.639 13.136V9.983l-2.198 3.153h-.456V8.908h.569v3.16l2.198-3.16h.456v4.228h-.569Z"/></g><defs><clipPath id="a"><path fill="#fff" d="M0 0h160v29H0z"/></clipPath></defs></svg>